<svg id="Capa_1" enable-background="new 0 0 510 510" height="512" viewBox="0 0 510 510" width="512" xmlns="http://www.w3.org/2000/svg"><g><g id="XMLID_327_"><path id="XMLID_328_" d="m135 359.3-30 15-30-15v-75l15-15-15-15v-45l30-15.6 30 15.6v45l-15 15 15 15z" fill="#c7e9f3"/><path id="XMLID_339_" d="m225 209.3v45l15 15-15 15v75l15 15 15-15 15-67.5-15-82.5-15-15.6z" fill="#c7e9f3"/><path id="XMLID_337_" d="m285 209.3-15-15.7-15 15.7v150l15 15 15-15v-75l-15-15 15-15z" fill="#b3dded"/><path id="XMLID_336_" d="m375 359.3 30 15 30-15v-75l-15-15 15-15v-45l-30-15.6-30 15.6v45l15 15-15 15z" fill="#b3dded"/><path id="XMLID_334_" d="m30 109.9v24.4c-10.5 0-19.5 0-30 0v75h255l15-96.8-15-111.8c-6.3 3-218.7 106.2-225 109.2z" fill="#e3f5ff"/><path id="XMLID_333_" d="m510 134.3c-10.5 0-19.5 0-30 0 0-8.5 0-15.9 0-24.4-6.3-3-218.7-106.2-225-109.2v208.7h255c0-19.1 0-62.9 0-75.1z" fill="#c7e9f3"/><path id="XMLID_330_" d="m30 359.3v75l112.5 15 112.5-15 15-37.5-15-37.5c-15.2 0-209.8 0-225 0z" fill="#e3f5ff"/><path id="XMLID_331_" d="m480 359.3c-15.2 0-209.8 0-225 0v75l112.5 15 112.5-15c0-20.2 0-63.2 0-75z" fill="#c7e9f3"/><path id="XMLID_332_" d="m375 284.3h60c0-10.5 0-19.5 0-30-7.3 0-52.7 0-60 0z" fill="#c7e9f3"/><path id="XMLID_344_" d="m225 254.3v30h30l15-15-15-15c-10.5 0-19.5 0-30 0z" fill="#e3f5ff"/><path id="XMLID_1_" d="m255 254.3v30h30c0-10.5 0-19.5 0-30-10.5 0-19.5 0-30 0z" fill="#c7e9f3"/><path id="XMLID_364_" d="m135 284.3c-7.3 0-52.7 0-60 0 0-10.5 0-19.5 0-30h60z" fill="#e3f5ff"/><path id="XMLID_367_" d="m210 119.3c0 24.8 20.2 45 45 45l15-45-15-45c-24.8 0-45 20.2-45 45z" fill="#ff6e6a"/><path id="XMLID_603_" d="m300 119.3c0-24.8-20.2-45-45-45v90c24.8 0 45-20.1 45-45z" fill="#fa473a"/><path id="XMLID_617_" d="m0 434.3v75h255l15-37.5-15-37.5c-7.2 0-247.8 0-255 0z" fill="#c7e9f3"/><path id="XMLID_620_" d="m510 434.3c-7.2 0-247.8 0-255 0v75h255c0-20.2 0-63.2 0-75z" fill="#b3dded"/></g><path d="m150 134.3h30v30h-30z" fill="#6379a5"/><path d="m330 134.3h30v30h-30z" fill="#535e8b"/></g></svg>