<svg id="Layer_1" enable-background="new 0 0 512 512" height="512" viewBox="0 0 512 512" width="512" xmlns="http://www.w3.org/2000/svg" xmlns:xlink="http://www.w3.org/1999/xlink"><linearGradient id="lg1"><stop offset=".322" stop-color="#a163f5"/><stop offset=".466" stop-color="#b074ee"/><stop offset=".752" stop-color="#d8a1dd"/><stop offset=".898" stop-color="#efbad3"/></linearGradient><linearGradient id="SVGID_1_" gradientUnits="userSpaceOnUse" x1="133.3" x2="133.3" xlink:href="#lg1" y1="405" y2="152.552"/><linearGradient id="SVGID_2_" gradientUnits="userSpaceOnUse" x1="265.623" x2="265.623" xlink:href="#lg1" y1="405" y2="152.552"/><linearGradient id="SVGID_3_" gradientUnits="userSpaceOnUse" x1="378.7" x2="378.7" xlink:href="#lg1" y1="405" y2="152.552"/><linearGradient id="SVGID_4_" gradientUnits="userSpaceOnUse" x1="256" x2="256" xlink:href="#lg1" y1="405" y2="152.552"/><linearGradient id="SVGID_6_" gradientUnits="userSpaceOnUse" x1="256.05" x2="256.05" xlink:href="#lg1" y1="405" y2="152.552"/><linearGradient id="SVGID_7_" gradientUnits="userSpaceOnUse" x1="246.405" x2="246.405" xlink:href="#lg1" y1="405" y2="152.552"/><g><path d="m118.2 469.2c0 8.4 6.7 15.1 15.1 15.1 8.3 0 15.1-6.8 15.1-15.1s-6.8-15.1-15.1-15.1-15.1 6.8-15.1 15.1zm15.1-3.1c1.7 0 3.1 1.4 3.1 3.1s-1.4 3.1-3.1 3.1-3.1-1.4-3.1-3.1 1.4-3.1 3.1-3.1z" fill="url(#SVGID_1_)"/><path d="m430.4 134.7-15.1-124.4c-.4-3-2.9-5.3-6-5.3h-68c-2.6 0-5 1.5-5.9 4-.4 1.2-.5 2.6-.1 3.8l8.6 28.2-26.8 16.9c-3.3 1.8-7.2 2.3-10.9 1.4l-57.2-10.6c-14.6-2.6-29.6-.9-43.1 5-2.1.9-4 2-5.9 3.3l-96.6 66.2c-2.6 1.8-3.4 5.3-1.7 8 5.2 8.7 14.6 14 24.7 14 4.8 0 9.5-1.2 13.7-3.5l.4-.2c4.9 5.3 11.7 8.4 19 8.5 3.4 0 6.7-.7 9.7-2.2l3.1-1.6c10.2 8 24.2 9 35.5 2.5l20.9-11.4h27.9c5.9 0 11.7 1.3 17 3.9l3.9 1.9c23.2 11.3 50.9 8.6 71.5-7 .1-.1.2-.2.4-.3l9.4-8.4c2.9-2.6 6.3-4.6 10-5.9l4.8 15.8c.8 2.5 3.1 4.2 5.7 4.2h45.3c1.6 0 3.3-.6 4.4-1.7 1.1-1.5 1.6-3.3 1.4-5.1zm-266.9 2.3c-3.5 1.8-8.2.9-11.9-1.6l35.4-19.1c.9 2.2 2.1 4.3 3.4 6.2zm38.1 1.2c-5.2 3-11.6 3.5-17.2 1.3l15-8.1c2.4 1.6 4.9 2.9 7.6 3.9zm148.8-19.8-9.2 8.2c-17 12.7-39.7 14.9-58.8 5.6l-3.9-1.9c-6.9-3.3-14.5-5.1-22.2-5.1h-37.8c-9.8 0-18.4-6.4-21.2-15.8l25.1 1.1c10 .5 20 0 29.9-1.4 3.2-.4 5.7-3.4 5.3-6.6-.4-3.4-3.4-5.8-6.8-5.3-9.3 1.3-18.6 1.7-28 1.3l-32.3-1.5c-3.3-.2-6.1 2.4-6.3 5.7v.3 1l-50.2 27c-6 3.3-13.4 2.5-18.6-1.8l89.9-61.7c1.9-1.3 3.9-2.5 6.1-3.4 11.1-4.6 23.3-5.9 35.2-3.8l56.7 10.4c6.7 1.6 13.7.7 19.7-2.7l24.4-15.4 17.4 57.1c-5.3 2-10.2 4.9-14.4 8.7zm33 11-34.3-112.4h54.9l13.7 112.4z" fill="url(#SVGID_2_)"/><path d="m378.7 27.7c-8.3 0-15.1 6.8-15.1 15.1s6.8 15.1 15.1 15.1c8.4 0 15.1-6.8 15.1-15.1s-6.8-15.1-15.1-15.1zm0 18.2c-1.7 0-3.1-1.4-3.1-3.1s1.4-3.1 3.1-3.1 3.1 1.4 3.1 3.1-1.4 3.1-3.1 3.1z" fill="url(#SVGID_3_)"/><path d="m314.2 256c0-32.1-26.1-58.2-58.2-58.2s-58.2 26.1-58.2 58.2 26.1 58.2 58.2 58.2 58.2-26.1 58.2-58.2zm-58.2 46.2c-25.5 0-46.2-20.7-46.2-46.2s20.7-46.2 46.2-46.2 46.2 20.7 46.2 46.2-20.7 46.2-46.2 46.2z" fill="url(#SVGID_4_)"/><path d="m256 235.5c3.9 0 7.1 3.2 7.1 7.1 0 3.3 2.7 6 6 6s6-2.7 6-6c0-8.4-5.5-15.6-13.1-18.1v-2.2c0-3.3-2.7-6-6-6s-6 2.7-6 6v2.2c-7.6 2.5-13.1 9.7-13.1 18.1 0 10.5 8.6 19.1 19.1 19.1 3.9 0 7.1 3.2 7.1 7.1s-3.1 7.1-7 7.1h-.1-.1c-3.9 0-7-3.2-7-7.1 0-3.3-2.7-6-6-6s-6 2.7-6 6c0 8.4 5.5 15.6 13.1 18.1v2.8c0 3.3 2.7 6 6 6s6-2.7 6-6v-2.8c7.6-2.5 13.1-9.7 13.1-18.1 0-10.5-8.6-19.1-19.1-19.1-3.9 0-7.1-3.2-7.1-7.1s3.2-7.1 7.1-7.1z" fill="url(#SVGID_4_)"/><path d="m300.3 330.6c21-12.5 35.8-33.3 40.7-57.1 1.2-5.7 1.8-11.6 1.8-17.5-.1-47.8-39-86.7-86.8-86.7s-86.7 38.9-86.7 86.7 38.9 86.7 86.7 86.7c15.6 0 30.9-4.2 44.3-12.1zm-50.3-2.2v2.1c-16.1-1.3-30.8-7.7-42.4-17.6l1.5-1.5c2.3-2.3 2.3-6.1 0-8.5-2.3-2.3-6.1-2.3-8.5 0l-1.5 1.5c-9.9-11.6-16.3-26.3-17.6-42.4h2.1c3.3 0 6-2.7 6-6s-2.7-6-6-6h-2.1c1.3-16.1 7.7-30.8 17.6-42.4l1.5 1.5c1.2 1.2 2.7 1.8 4.2 1.8s3.1-.6 4.2-1.8c2.3-2.3 2.3-6.1 0-8.5l-1.5-1.5c11.6-9.9 26.3-16.3 42.4-17.6v2.1c0 3.3 2.7 6 6 6s6-2.7 6-6v-2.1c16.1 1.3 30.8 7.7 42.4 17.6l-1.5 1.5c-2.3 2.3-2.3 6.1 0 8.5 1.2 1.2 2.7 1.8 4.2 1.8s3.1-.6 4.2-1.8l1.5-1.5c9.9 11.6 16.3 26.3 17.6 42.4h-2.1c-3.3 0-6 2.7-6 6s2.7 6 6 6h2.1c-.1 3.1-.5 6.1-1.1 9.1-2.5 12.4-8.2 23.8-16.3 33.3l-1.5-1.5c-2.3-2.3-6.1-2.3-8.5 0-2.3 2.3-2.3 6.1 0 8.5l1.5 1.5c-3.2 2.7-6.6 5.2-10.3 7.4-9.8 5.8-20.8 9.3-32.1 10.2v-2.1c0-3.3-2.7-6-6-6s-6 2.7-6 6z" fill="url(#SVGID_6_)"/><path d="m385.7 366.5c-4.8 0-9.5 1.2-13.7 3.5l-.4.2c-4.9-5.3-11.7-8.4-19-8.5-3.4 0-6.7.7-9.7 2.2l-3.1 1.6c-10.2-8-24.2-9-35.5-2.5l-20.9 11.4h-27.9c-5.9 0-11.7-1.3-17-3.9l-3.9-1.9c-23.2-11.3-50.9-8.6-71.5 7-.1.1-.2.2-.4.3l-9.4 8.4c-2.9 2.6-6.3 4.6-10 5.9l-4.8-15.8c-.8-2.5-3.1-4.2-5.7-4.2h-45.1c-1.6 0-3.3.6-4.4 1.7-1.4 1.4-1.9 3.2-1.7 5l15.2 124.4c.4 3 2.9 5.3 6 5.3h68c2.6 0 5-1.5 5.9-4 .4-1.2.5-2.6.1-3.8l-8.6-28.2 26.8-16.9c3.3-1.8 7.2-2.3 10.9-1.4l57.2 10.6c14.6 2.6 29.6.9 43.1-5 2.1-.9 4-2 5.9-3.3l96.6-66.2c2.6-1.7 3.3-5.2 1.7-7.9-5.2-8.7-14.6-14-24.7-14zm-37.2 8.2c3.5-1.8 8.2-.9 11.9 1.6l-35.4 19.1c-.9-2.2-2.1-4.3-3.4-6.2zm-38.1-1.2c5.2-3 11.6-3.5 17.2-1.3l-15 8.1c-2.4-1.6-4.9-2.9-7.6-3.9zm-202.4 121.1v.1l-13.7-112.5h34.3l34.3 112.4zm198.5-50.5c-1.9 1.3-3.9 2.5-6.1 3.4-11.1 4.6-23.3 5.9-35.2 3.8l-56.7-10.4c-6.7-1.6-13.7-.7-19.7 2.7l-24.4 15.4-17.4-57.1c5.3-1.8 10.3-4.7 14.5-8.5l9.2-8.2c17-12.7 39.7-14.9 58.8-5.6l3.9 1.9c6.9 3.3 14.5 5.1 22.2 5.1h37.8c9.8 0 18.4 6.4 21.2 15.8l-25.1-1.1c-10-.5-20 0-29.9 1.4-3.2.4-5.7 3.4-5.3 6.6.4 3.4 3.4 5.8 6.8 5.3 9.3-1.3 18.6-1.7 28-1.3l32.3 1.5c3.3.2 6.1-2.4 6.3-5.7 0-.1 0-.2 0-.3 0-.3 0-.7 0-1l50.2-27c6-3.3 13.4-2.5 18.6 1.8z" fill="url(#SVGID_7_)"/></g></svg>