<svg height="512" viewBox="0 0 192 192" width="512" xmlns="http://www.w3.org/2000/svg" xmlns:xlink="http://www.w3.org/1999/xlink"><linearGradient id="New_Gradient_Swatch_1" gradientUnits="userSpaceOnUse" x1="69.172" x2="122.828" y1="189.172" y2="135.515"><stop offset="0" stop-color="#34cdfa"/><stop offset="1" stop-color="#e8d9f1"/></linearGradient><g id="Flat-2" data-name="Flat"><path d="m189.382 106.081-88-80a8 8 0 0 0 -10.763 0l-88 80a8 8 0 0 0 5.381 13.919h16v64a8 8 0 0 0 8 8h128a8 8 0 0 0 8-8v-64h16a8 8 0 0 0 5.382-13.919z" fill="#e6f9fe"/><path d="m40 184v-96l64.029-59.513-2.647-2.406a8 8 0 0 0 -10.763 0l-88 80a8 8 0 0 0 5.381 13.919h16v64a8 8 0 0 0 8 8h16a8 8 0 0 1 -8-8z" fill="#ccf2fe"/><path d="m112 128h-32a8 8 0 0 0 -8 8v56h48v-56a8 8 0 0 0 -8-8z" fill="url(#New_Gradient_Swatch_1)"/></g><path d="m176 40h-32v16h14.606l-32.067 37.411-18.1-12.067a8 8 0 0 0 -11.094 2.219l-12.084 18.124-9.683-4.842a8 8 0 0 0 -9.235 1.5l-16 16 11.314 11.314 11.923-11.925 10.842 5.421a8 8 0 0 0 10.234-2.717l11.563-17.344 17.344 11.562a8 8 0 0 0 10.511-1.45l33.926-39.58v10.374h16v-32a8 8 0 0 0 -8-8z" fill="#34cdfa"/></svg>